<mxfile host="app.diagrams.net" agent="Mozilla/5.0 (Windows NT 10.0; Win64; x64) AppleWebKit/537.36 (KHTML, like Gecko) Chrome/131.0.0.0 Safari/537.36" version="24.8.6">
  <diagram name="Сторінка-1" id="InBL03hDqBfgbEI561dN">
    <mxGraphModel dx="1432" dy="820" grid="1" gridSize="10" guides="1" tooltips="1" connect="1" arrows="1" fold="1" page="1" pageScale="1" pageWidth="827" pageHeight="1169" math="0" shadow="0">
      <root>
        <mxCell id="0" />
        <mxCell id="1" parent="0" />
        <mxCell id="JZ_L43VAB0Stcx7P9116-7" style="edgeStyle=orthogonalEdgeStyle;rounded=0;orthogonalLoop=1;jettySize=auto;html=1;" edge="1" parent="1" source="JZ_L43VAB0Stcx7P9116-1" target="JZ_L43VAB0Stcx7P9116-2">
          <mxGeometry relative="1" as="geometry" />
        </mxCell>
        <mxCell id="JZ_L43VAB0Stcx7P9116-1" value="start" style="ellipse;whiteSpace=wrap;html=1;" vertex="1" parent="1">
          <mxGeometry x="350" y="20" width="120" height="80" as="geometry" />
        </mxCell>
        <mxCell id="JZ_L43VAB0Stcx7P9116-8" style="edgeStyle=orthogonalEdgeStyle;rounded=0;orthogonalLoop=1;jettySize=auto;html=1;" edge="1" parent="1" source="JZ_L43VAB0Stcx7P9116-2" target="JZ_L43VAB0Stcx7P9116-3">
          <mxGeometry relative="1" as="geometry" />
        </mxCell>
        <mxCell id="JZ_L43VAB0Stcx7P9116-2" value="&amp;nbsp; &amp;nbsp;int a, b, c;" style="rounded=0;whiteSpace=wrap;html=1;" vertex="1" parent="1">
          <mxGeometry x="350" y="180" width="120" height="60" as="geometry" />
        </mxCell>
        <mxCell id="JZ_L43VAB0Stcx7P9116-9" style="edgeStyle=orthogonalEdgeStyle;rounded=0;orthogonalLoop=1;jettySize=auto;html=1;" edge="1" parent="1" source="JZ_L43VAB0Stcx7P9116-3" target="JZ_L43VAB0Stcx7P9116-4">
          <mxGeometry relative="1" as="geometry" />
        </mxCell>
        <mxCell id="JZ_L43VAB0Stcx7P9116-3" value="cin &amp;gt;&amp;gt; a &amp;gt;&amp;gt; b &amp;gt;&amp;gt; c;" style="shape=parallelogram;perimeter=parallelogramPerimeter;whiteSpace=wrap;html=1;fixedSize=1;" vertex="1" parent="1">
          <mxGeometry x="350" y="310" width="120" height="60" as="geometry" />
        </mxCell>
        <mxCell id="JZ_L43VAB0Stcx7P9116-10" style="edgeStyle=orthogonalEdgeStyle;rounded=0;orthogonalLoop=1;jettySize=auto;html=1;" edge="1" parent="1" source="JZ_L43VAB0Stcx7P9116-4" target="JZ_L43VAB0Stcx7P9116-5">
          <mxGeometry relative="1" as="geometry" />
        </mxCell>
        <mxCell id="JZ_L43VAB0Stcx7P9116-4" value="&amp;nbsp; int min_consumption = min({ a + b, a + c, b + c });" style="rounded=0;whiteSpace=wrap;html=1;" vertex="1" parent="1">
          <mxGeometry x="350" y="450" width="120" height="60" as="geometry" />
        </mxCell>
        <mxCell id="JZ_L43VAB0Stcx7P9116-11" style="edgeStyle=orthogonalEdgeStyle;rounded=0;orthogonalLoop=1;jettySize=auto;html=1;entryX=0.5;entryY=0;entryDx=0;entryDy=0;" edge="1" parent="1" source="JZ_L43VAB0Stcx7P9116-5" target="JZ_L43VAB0Stcx7P9116-6">
          <mxGeometry relative="1" as="geometry" />
        </mxCell>
        <mxCell id="JZ_L43VAB0Stcx7P9116-5" value="&lt;div&gt;&lt;br&gt;&lt;/div&gt;&lt;div&gt;&amp;nbsp; &amp;nbsp; cout &amp;lt;&amp;lt; min_consumption &amp;lt;&amp;lt; endl;&lt;/div&gt;" style="shape=parallelogram;perimeter=parallelogramPerimeter;whiteSpace=wrap;html=1;fixedSize=1;" vertex="1" parent="1">
          <mxGeometry x="350" y="555" width="120" height="60" as="geometry" />
        </mxCell>
        <mxCell id="JZ_L43VAB0Stcx7P9116-6" value="end" style="ellipse;whiteSpace=wrap;html=1;" vertex="1" parent="1">
          <mxGeometry x="354" y="670" width="120" height="80" as="geometry" />
        </mxCell>
      </root>
    </mxGraphModel>
  </diagram>
</mxfile>
